<svg width="432" height="432" viewBox="0 0 432 432" fill="none" xmlns="http://www.w3.org/2000/svg">
<circle cx="223.5" cy="215.5" r="156.5" fill="#D71F33"/>
<path d="M372 218C372 299.738 304.843 366 222 366C139.157 366 72 299.738 72 218C78.6937 261.852 105.824 261.852 188.667 261.852C271.509 261.852 326.545 276.303 372 218Z" fill="black"/>
<path d="M76.5 204C76.5 122.262 50.1573 135.5 133 135.5C168.688 131.412 152.5 176.5 166.5 176.5C188 176.5 166.136 167.772 193.5 166C252 170 242.5 157.5 293.5 162.5C293.5 126.5 327.035 122.179 328.5 122.5C364.538 130.394 372.5 192.614 372.5 217C365.806 173.148 402.5 277.5 222 265.5C139.157 265.5 59.5 270.5 76.5 204Z" fill="#F8F8F8"/>
<path fill-rule="evenodd" clip-rule="evenodd" d="M124.613 63.6476C144.665 50.9266 173.695 40.6206 198.448 37.4336C207.99 36.2056 232.721 36.1846 242.474 37.3966C262.534 39.8886 281.292 45.3626 299.701 54.0946C306.166 57.1616 311.334 59.7906 311.187 59.9386C311.039 60.0856 306.988 60.7296 302.184 61.3686C293.537 62.5196 293.378 62.5016 286.199 59.5346C242.289 41.3866 190.687 42.8166 147.606 63.3736L137.264 68.3086L128.271 67.6706L119.279 67.0316L124.613 63.6476ZM157.742 67.9716C156.381 66.6106 189.674 57.6176 201.948 56.0306C208.475 55.1876 233.473 55.4006 241.474 56.3686C249.766 57.3716 269.521 61.8496 272.4 63.3776C276.288 65.4426 251.381 66.3166 233.948 64.7276C220.32 63.4856 203.202 64.3326 191.045 66.8506C184.098 68.2896 158.908 69.1376 157.742 67.9716ZM25.6752 75.4956C20.2402 67.9876 15.4942 61.3296 15.1282 60.7016C14.6462 59.8736 15.4912 59.7846 18.2062 60.3806C24.9832 61.8666 70.6002 67.2986 88.9482 68.8046C124.762 71.7426 153.294 72.6186 193.448 72.0136C243.383 71.2596 268.637 69.4546 316.285 63.2316C329.12 61.5556 339.773 60.3356 339.957 60.5196C340.142 60.7036 335.595 67.2196 329.854 74.9996L319.416 89.1436L307.182 89.7256C295.39 90.2866 249.544 91.6516 198.448 92.9646C176.645 93.5246 84.3632 91.5556 47.7522 89.7496L35.5562 89.1486L25.6752 75.4956ZM300.816 67.7636C229.842 76.8366 140.545 77.2356 63.4482 68.8226C40.3672 66.3046 40.3622 66.3046 47.4482 67.7986C58.0782 70.0406 80.6472 73.1646 101.448 75.2736C156.312 80.8366 211.556 80.3676 267.448 73.8656C283.546 71.9926 313.672 67.2346 313.094 66.6556C312.869 66.4306 307.344 66.9296 300.816 67.7636ZM328.523 84.0036C328.482 83.5416 329.68 81.4496 331.186 79.3546L333.923 75.5456L336.93 77.6876C338.584 78.8646 343.596 83.4316 348.067 87.8356C376.852 116.19 394.162 149.614 401.154 190.344C404.498 209.822 403.059 242.986 398.048 261.969L396.695 267.095L401.821 267.711C404.641 268.049 408.41 268.331 410.198 268.335C411.045 268.337 411.685 268.383 412.164 268.5H385.266L386.381 264.369C393.422 238.276 394.306 208.939 388.849 182.52C384.964 163.71 375.014 139.974 364.223 123.77C357.047 112.995 344.107 98.0366 335.984 91.1256C331.922 87.6706 328.565 84.4656 328.523 84.0036ZM376.521 268.5C394.47 209.691 380.404 149.022 338.507 105.004C329.567 95.6096 323.523 90.8686 322.19 92.2016C321.562 92.8296 319.001 93.3486 316.498 93.3546L311.948 93.3656L315.448 95.9906C322.992 101.65 343.229 123.206 348.649 131.356C359.99 148.41 367.266 165.375 372.034 185.884C374.574 196.809 374.818 199.575 374.849 217.844C374.885 239.344 373.611 248.229 367.893 266.328C367.644 267.116 367.413 267.839 367.197 268.5H376.521ZM362.964 268.5C363.305 267.307 363.744 265.883 364.288 264.185C365.949 258.998 368.049 250.725 368.953 245.799C370.873 235.346 371.936 210.807 370.746 204.429L369.922 200.015L359.935 196.65C354.442 194.799 344.323 192.067 337.448 190.578C325.597 188.011 323.625 187.876 299.448 187.97C285.423 188.025 271.698 188.474 268.948 188.968L263.948 189.867V209.356V228.844H267.448H270.948L271.246 235.094L271.543 241.344L295.746 241.474C309.057 241.546 328.498 241.886 338.948 242.23L357.948 242.856L343.948 243.587C336.248 243.989 316.785 244.602 300.698 244.95C273.918 245.528 271.448 245.727 271.448 247.306C271.448 248.843 273.257 249.101 288.108 249.687C297.271 250.048 309.758 250.397 315.858 250.462C336.094 250.678 333.275 251.928 310.948 252.639C298.848 253.024 285.011 253.34 280.198 253.342C271.532 253.344 271.448 253.368 271.448 255.844V258.344L286.198 258.456C294.311 258.517 305.223 258.857 310.448 259.211L319.948 259.853L305.448 260.595C297.473 261.003 286.598 261.338 281.281 261.34C275.22 261.343 271.48 261.749 271.253 262.43C270.882 263.541 148.859 262.047 130.355 260.704C122.964 260.168 121.675 260.309 121.137 261.712C120.589 263.14 118.193 263.344 101.979 263.344H83.4482V253.404V243.465L79.6982 243.072L75.9482 242.68L79.6982 242.512L83.4482 242.344V235.904V229.465L87.1982 229.154L90.9482 228.844L91.2222 212.762L91.4962 196.681L82.5642 192.613L73.6332 188.544L73.0492 191.694C68.6386 215.472 71.1163 245.81 79.2189 268.5H362.964ZM74.9853 268.5C74.099 266.061 73.0383 262.12 71.4242 255.795C63.3862 224.304 65.8742 189.638 78.3292 159.594L81.3352 152.344H76.4792H71.6232L68.6722 160.094C56.2422 192.731 54.6782 231.893 64.5132 264.199C64.9863 265.753 65.4212 267.261 65.7584 268.5H74.9853ZM57.1041 268.5C55.9204 264.712 54.5219 259.544 53.5512 255.042C46.9492 224.425 48.8622 191.46 58.9152 162.577C61.9502 153.858 62.4482 151.153 62.4482 143.386V134.344H66.8032H71.1582L77.5532 124.605C81.0702 119.248 84.0982 114.523 84.2812 114.105C84.4652 113.686 81.7652 113.348 78.2812 113.353L71.9482 113.361L68.2612 119.103C48.8252 149.366 39.2552 182.156 39.2962 218.344C39.3152 235.579 40.8422 248.821 44.4182 262.754C44.9674 264.892 45.4672 266.929 45.8335 268.5H57.1041ZM66.4372 103.844C65.5042 101.094 64.4192 97.8316 64.0272 96.5936L63.3132 94.3436H177.381C240.118 94.3436 291.448 94.6676 291.448 95.0636C291.448 95.4596 290.436 98.8306 289.198 102.554L286.948 109.325L273.698 109.334L260.448 109.344V120.844V132.344H263.948C266.744 132.344 267.448 132.734 267.448 134.283C267.448 135.839 266.511 136.348 262.698 136.861C254.286 137.995 255.64 138.185 272.698 138.265L289.448 138.344V143.344V148.344H274.948H260.448V189.199V230.055L257.198 231.097C254.23 232.049 254.534 232.149 260.698 232.242L267.448 232.344V245.844V259.344H252.579H237.709L237.829 246.094L237.948 232.844L241.709 232.533L245.47 232.222L245.209 190.533L244.948 148.844H177.448H109.948L109.687 190.594L109.426 232.344H113.437H117.448V245.844V259.344H102.448H87.4482V245.844V232.344L94.6982 232.254C100.94 232.176 101.496 232.033 98.6982 231.225C96.9112 230.709 95.4382 229.962 95.4252 229.565C95.4122 229.169 95.2992 210.844 95.1752 188.844L94.9482 148.844L80.3052 148.568L65.6632 148.292L65.8052 143.568L65.9482 138.844L81.9482 138.344C94.8232 137.942 96.9232 137.691 92.6982 137.06C88.4112 136.419 87.4482 135.914 87.4482 134.31C87.4482 132.687 88.1382 132.344 91.4052 132.344H95.3632L95.0502 121.094L94.7382 109.844L81.4362 109.344L68.1342 108.844L66.4372 103.844ZM177.448 99.0986C247.945 98.9306 284.448 98.5026 284.448 97.8436C284.448 97.1846 248.009 96.7896 177.448 96.6836C85.8132 96.5466 70.4482 96.7276 70.4482 97.9386C70.4482 99.1506 85.7682 99.3166 177.448 99.0986ZM170.448 138.344V123.844V109.344H139.948H109.448V120.844V132.344H113.448C117.226 132.344 117.448 132.511 117.448 135.344V138.344H143.948H170.448ZM245.448 132.223V120.784V109.344H215.448H185.448V123.844V138.344H211.382H237.315L237.632 135.594C237.906 133.206 238.442 132.803 241.698 132.534L245.448 132.223ZM102.52 132.344L102.234 122.594C101.963 113.345 101.832 112.828 99.6982 112.524C97.4922 112.211 97.4482 112.404 97.4482 122.274V132.344H99.9842H102.52ZM257.448 132.344V122.344C257.448 113.199 257.286 112.344 255.555 112.344C252.945 112.344 252.448 114.198 252.448 123.926C252.448 132.239 252.479 132.344 254.948 132.344H257.448ZM85.4482 128.712C85.4482 127.766 87.7092 123.84 89.3262 121.977C90.8702 120.199 90.9632 120.288 91.2642 123.827C91.4382 125.872 91.4282 127.697 91.2422 127.884C90.6402 128.486 85.4482 129.228 85.4482 128.712ZM299.228 133.594C305.235 127.618 311.455 123.968 319.335 121.795C321.872 121.095 326.053 120.483 328.625 120.433C332.86 120.352 333.595 120.699 336.4 124.094L339.498 127.844L330.223 128.437C325.122 128.764 319.014 129.764 316.649 130.66C303.976 135.464 294.713 147.325 292.888 161.088L292.232 166.03L284.83 165.555C279.385 165.205 276.268 165.523 273.039 166.756C266.88 169.108 263.913 168.173 263.617 163.786C263.403 160.599 263.601 160.344 266.295 160.344C267.895 160.344 270.906 159.633 272.987 158.763C275.409 157.751 278.857 157.302 282.569 157.513C288.088 157.828 288.381 157.726 288.658 155.384C288.849 153.765 289.739 152.738 291.257 152.384C292.527 152.087 293.539 151.506 293.507 151.094C293.475 150.682 293.448 147.869 293.448 144.844C293.448 139.475 293.586 139.207 299.228 133.594ZM82.4792 134.344C81.9472 134.344 81.7702 133.669 82.0862 132.844C82.4032 132.019 82.8392 131.344 83.0552 131.344C83.2712 131.344 83.4482 132.019 83.4482 132.844C83.4482 133.669 83.0122 134.344 82.4792 134.344ZM124.448 133.576C126.373 133.576 127.161 133.782 126.198 134.033C125.235 134.285 123.661 134.285 122.698 134.033C121.735 133.782 122.523 133.576 124.448 133.576ZM177.389 142.344C248.938 142.344 286.542 142.001 286.948 141.344C287.359 140.68 250.792 140.344 178.007 140.344C105.634 140.344 68.4482 140.683 68.4482 141.344C68.4482 142.005 105.428 142.344 177.389 142.344ZM78.9012 175.268C78.4152 174.482 84.0792 158.77 86.4352 154.368C87.0312 153.255 88.4032 152.344 89.4832 152.344C92.2012 152.344 92.0222 155.503 89.0122 160.666C87.6722 162.964 85.8142 167.599 84.8832 170.967C83.4652 176.096 82.8852 177.009 81.3042 176.596C80.2662 176.325 79.1852 175.727 78.9012 175.268ZM159.144 177.99C158.373 169.739 155.508 162.344 150.907 156.729L147.217 152.225L152.082 152.534C156.896 152.841 156.977 152.903 159.654 158.344C161.142 161.369 162.659 166.4 163.025 169.523C163.676 175.082 163.744 175.182 166.193 174.251C167.569 173.728 170.102 173.561 171.821 173.881C174.52 174.382 175.486 173.909 178.882 170.422C185.994 163.119 198.594 161.282 207.109 166.307C210.357 168.223 211.169 168.303 216.585 167.237C222.78 166.019 231.326 166.463 237.698 168.336C241.095 169.334 241.448 169.763 241.448 172.891C241.448 174.79 241.28 176.344 241.074 176.344C240.868 176.344 238.73 175.625 236.324 174.746C231.187 172.869 220.68 172.614 214.813 174.224C211.08 175.249 210.255 175.117 206.313 172.864C197.696 167.937 186.461 170.01 179.634 177.785C177.016 180.767 175.85 181.344 172.446 181.344C170.212 181.344 166.768 182.019 164.794 182.844C162.819 183.669 160.874 184.344 160.47 184.344C160.067 184.344 159.47 181.484 159.144 177.99ZM101.542 228.344C102.104 228.344 102.369 213.59 102.21 191.094L101.948 153.844L99.6982 153.524L97.4482 153.205V190.167C97.4482 221.426 97.4054 227.097 99.5649 228.12C100.085 228.367 100.734 228.344 101.542 228.344ZM255.334 228.12C257.49 227.099 257.448 221.439 257.448 190.237C257.448 154.706 257.378 153.344 255.555 153.344C254.514 153.344 253.389 154.056 253.055 154.926C252.052 157.539 252.352 228.344 253.366 228.344C254.17 228.344 254.815 228.366 255.334 228.12ZM321.948 176.73C329.378 176.532 331.806 176.041 335.867 173.917C341.351 171.049 348.907 170.502 355.55 172.493C358.541 173.389 359.719 173.364 360.906 172.379C362.18 171.321 362.577 171.501 363.345 173.48C364.097 175.42 363.758 176.361 361.453 178.726C358.874 181.373 358.38 181.516 355.397 180.476C350.593 178.801 342.45 179.16 338.59 181.218C335.794 182.707 334.286 182.855 329.59 182.098C326.487 181.598 320.123 180.856 315.448 180.448C307.228 179.732 307.047 179.662 309.948 178.339C311.6 177.586 316.993 176.863 321.948 176.73ZM150.448 206.779C171.266 206.754 185.723 204.941 217.448 198.374C227.623 196.267 237.186 194.499 238.698 194.444L241.448 194.344V211.888C241.448 225.343 241.157 229.394 240.198 229.269C235.035 228.599 234.448 229.153 234.448 234.692V240.04L178.355 240.765C147.503 241.164 122.021 241.251 121.728 240.957C121.435 240.664 121.139 237.818 121.071 234.634L120.948 228.844H117.448H113.948L113.667 215.969L113.386 203.095L115.667 203.721C123.444 205.855 134.172 206.799 150.448 206.779ZM121.448 249.925V246.986V244.048L129.698 244.69C134.235 245.043 159.66 245.335 186.198 245.338C228.857 245.343 234.448 245.521 234.448 246.875C234.448 247.718 233.886 248.59 233.198 248.814C232.511 249.037 207.085 249.379 176.698 249.573L121.448 249.925ZM121.448 259.633V255.922V252.21L131.698 252.772C139.222 253.185 222.859 254.493 233.198 254.36C233.886 254.351 234.448 254.946 234.448 255.682C234.448 256.773 225.252 257.14 184.698 257.669C157.335 258.026 131.911 258.614 128.198 258.976L121.448 259.633Z" fill="black"/>
<path fill-rule="evenodd" clip-rule="evenodd" d="M72.2874 112.825C51.9266 142.269 40 177.992 40 216.5C40 317.292 121.708 399 222.5 399C323.292 399 405 317.292 405 216.5C405 158.443 377.89 106.717 335.639 73.2919L328.958 83.3122C367.997 114.557 393 162.609 393 216.5C393 310.665 316.665 387 222.5 387C128.335 387 52 310.665 52 216.5C52 178.194 64.6322 142.839 85.958 114.373L72.2874 112.825ZM140.458 67H118L117.937 66.9054C147.55 46.1681 183.604 34 222.5 34C255.64 34 286.717 42.8332 313.505 58.2736L294.646 61.9714C272.735 51.7243 248.286 46 222.5 46C192.76 46 164.798 53.6144 140.458 67ZM91.5 118.651C71.0883 145.934 59 179.805 59 216.5C59 306.799 132.201 380 222.5 380C312.799 380 386 306.799 386 216.5C386 165.039 362.225 119.131 325.06 89.1598L323.5 91.5L314.056 93.2819C351.649 121.261 376 166.036 376 216.5C376 301.276 307.276 370 222.5 370C137.724 370 69 301.276 69 216.5C69 187.168 77.2272 159.757 91.5 136.45V118.651ZM187.535 67H184.5H156.202C176.466 58.0006 198.899 53 222.5 53C243.678 53 263.915 57.0264 282.488 64.3553L269 67H257.465C246.233 64.3835 234.528 63 222.5 63C210.472 63 198.767 64.3835 187.535 67Z" fill="black"/>
<mask id="path-6-outside-1_4_23" maskUnits="userSpaceOnUse" x="29.6383" y="263.638" width="391" height="82" fill="black">
<rect fill="white" x="29.6383" y="263.638" width="391" height="82"/>
<path fill-rule="evenodd" clip-rule="evenodd" d="M53.8883 269.109C53.8883 271.386 53.0546 271.58 43.2633 271.58H32.6383V279.61V287.641H41.4446H50.2521L49.4096 292.274C46.1896 310.002 45.1721 314.04 43.6883 314.969C42.7671 315.546 39.9046 316.026 37.3258 316.037L32.6383 316.056V329.028V342H44.4933C55.6733 342 56.5658 341.806 60.1446 338.603C63.7633 335.363 64.1271 334.098 67.9658 311.423L71.9933 287.641H83.5921H95.1908L89.5258 295.98L83.8596 304.319L93.3183 304.681L102.777 305.043L102.395 310.241L102.013 315.438L86.7008 315.785L71.3883 316.132V329.066V342H94.5696C117.516 342 117.783 341.969 120.82 338.967C123.823 335.999 123.888 335.511 123.888 316.111V296.289H118.888C113.236 296.289 112.94 295.704 116.388 291.347C118.256 288.987 118.84 286.289 118.861 279.919L118.888 271.58H97.0133C75.9721 271.58 75.1383 271.486 75.1383 269.109C75.1383 266.832 74.3046 266.638 64.5133 266.638C54.7221 266.638 53.8883 266.832 53.8883 269.109ZM128.888 279.61V287.641H137.638C142.451 287.641 146.387 288.057 146.385 288.567C146.363 293.113 141.212 314.171 139.922 314.979C139.01 315.551 136.155 316.026 133.576 316.037L128.888 316.056V329.028V342H141.155C152.927 342 153.55 341.863 156.618 338.603C158.377 336.733 160.181 333.676 160.626 331.808L161.436 328.41H177.662H193.888V335.205V342H206.388H218.888V310.401V278.802L215.235 275.191L211.581 271.58H170.235H128.888V279.61ZM328.888 303.757V335.935L331.957 338.967L335.025 342H376.332H417.638V306.79V271.58H405.138H392.638V293.848V316.115L371.701 315.777L350.763 315.438L350.422 293.509L350.081 271.58H339.485H328.888V303.757ZM246.388 274.608C246.388 275.594 245.78 279.208 245.035 282.638L243.681 288.876H235.035H226.388V296.907V304.937H233.263C239.585 304.937 240.138 305.164 240.138 307.75C240.138 312.872 236.756 316.056 231.317 316.056H226.388V329.028V342H238.36C249.782 342 250.49 341.843 253.803 338.568C256.647 335.757 257.657 333.013 259.378 323.434C262.893 303.856 262.592 304.755 265.493 305.175C267.736 305.499 268.637 307.631 271.663 319.762C274.762 332.181 275.752 334.475 279.53 337.985L283.852 342H301.37H318.888V329.028V316.056H305.291C290.525 316.056 289.777 315.743 288.308 308.952L287.44 304.937H301.071C313.703 304.937 314.902 304.727 317.421 302.078C319.861 299.51 320.138 297.87 320.138 286.017V272.815H307.698H295.257L294.886 280.537L294.513 288.258L279.971 288.606L265.428 288.952L266.962 280.884L268.497 272.815H257.442C248.617 272.815 246.388 273.176 246.388 274.608ZM192.388 289.123C193.281 290.005 193.888 294.258 193.888 299.624V308.643H179.353H164.818L165.67 303.393C166.137 300.505 166.848 295.779 167.25 292.891L167.978 287.641H179.433C186.676 287.641 191.44 288.186 192.388 289.123Z"/>
</mask>
<path fill-rule="evenodd" clip-rule="evenodd" d="M53.8883 269.109C53.8883 271.386 53.0546 271.58 43.2633 271.58H32.6383V279.61V287.641H41.4446H50.2521L49.4096 292.274C46.1896 310.002 45.1721 314.04 43.6883 314.969C42.7671 315.546 39.9046 316.026 37.3258 316.037L32.6383 316.056V329.028V342H44.4933C55.6733 342 56.5658 341.806 60.1446 338.603C63.7633 335.363 64.1271 334.098 67.9658 311.423L71.9933 287.641H83.5921H95.1908L89.5258 295.98L83.8596 304.319L93.3183 304.681L102.777 305.043L102.395 310.241L102.013 315.438L86.7008 315.785L71.3883 316.132V329.066V342H94.5696C117.516 342 117.783 341.969 120.82 338.967C123.823 335.999 123.888 335.511 123.888 316.111V296.289H118.888C113.236 296.289 112.94 295.704 116.388 291.347C118.256 288.987 118.84 286.289 118.861 279.919L118.888 271.58H97.0133C75.9721 271.58 75.1383 271.486 75.1383 269.109C75.1383 266.832 74.3046 266.638 64.5133 266.638C54.7221 266.638 53.8883 266.832 53.8883 269.109ZM128.888 279.61V287.641H137.638C142.451 287.641 146.387 288.057 146.385 288.567C146.363 293.113 141.212 314.171 139.922 314.979C139.01 315.551 136.155 316.026 133.576 316.037L128.888 316.056V329.028V342H141.155C152.927 342 153.55 341.863 156.618 338.603C158.377 336.733 160.181 333.676 160.626 331.808L161.436 328.41H177.662H193.888V335.205V342H206.388H218.888V310.401V278.802L215.235 275.191L211.581 271.58H170.235H128.888V279.61ZM328.888 303.757V335.935L331.957 338.967L335.025 342H376.332H417.638V306.79V271.58H405.138H392.638V293.848V316.115L371.701 315.777L350.763 315.438L350.422 293.509L350.081 271.58H339.485H328.888V303.757ZM246.388 274.608C246.388 275.594 245.78 279.208 245.035 282.638L243.681 288.876H235.035H226.388V296.907V304.937H233.263C239.585 304.937 240.138 305.164 240.138 307.75C240.138 312.872 236.756 316.056 231.317 316.056H226.388V329.028V342H238.36C249.782 342 250.49 341.843 253.803 338.568C256.647 335.757 257.657 333.013 259.378 323.434C262.893 303.856 262.592 304.755 265.493 305.175C267.736 305.499 268.637 307.631 271.663 319.762C274.762 332.181 275.752 334.475 279.53 337.985L283.852 342H301.37H318.888V329.028V316.056H305.291C290.525 316.056 289.777 315.743 288.308 308.952L287.44 304.937H301.071C313.703 304.937 314.902 304.727 317.421 302.078C319.861 299.51 320.138 297.87 320.138 286.017V272.815H307.698H295.257L294.886 280.537L294.513 288.258L279.971 288.606L265.428 288.952L266.962 280.884L268.497 272.815H257.442C248.617 272.815 246.388 273.176 246.388 274.608ZM192.388 289.123C193.281 290.005 193.888 294.258 193.888 299.624V308.643H179.353H164.818L165.67 303.393C166.137 300.505 166.848 295.779 167.25 292.891L167.978 287.641H179.433C186.676 287.641 191.44 288.186 192.388 289.123Z" fill="#F8F8F8"/>
<path fill-rule="evenodd" clip-rule="evenodd" d="M53.8883 269.109C53.8883 271.386 53.0546 271.58 43.2633 271.58H32.6383V279.61V287.641H41.4446H50.2521L49.4096 292.274C46.1896 310.002 45.1721 314.04 43.6883 314.969C42.7671 315.546 39.9046 316.026 37.3258 316.037L32.6383 316.056V329.028V342H44.4933C55.6733 342 56.5658 341.806 60.1446 338.603C63.7633 335.363 64.1271 334.098 67.9658 311.423L71.9933 287.641H83.5921H95.1908L89.5258 295.98L83.8596 304.319L93.3183 304.681L102.777 305.043L102.395 310.241L102.013 315.438L86.7008 315.785L71.3883 316.132V329.066V342H94.5696C117.516 342 117.783 341.969 120.82 338.967C123.823 335.999 123.888 335.511 123.888 316.111V296.289H118.888C113.236 296.289 112.94 295.704 116.388 291.347C118.256 288.987 118.84 286.289 118.861 279.919L118.888 271.58H97.0133C75.9721 271.58 75.1383 271.486 75.1383 269.109C75.1383 266.832 74.3046 266.638 64.5133 266.638C54.7221 266.638 53.8883 266.832 53.8883 269.109ZM128.888 279.61V287.641H137.638C142.451 287.641 146.387 288.057 146.385 288.567C146.363 293.113 141.212 314.171 139.922 314.979C139.01 315.551 136.155 316.026 133.576 316.037L128.888 316.056V329.028V342H141.155C152.927 342 153.55 341.863 156.618 338.603C158.377 336.733 160.181 333.676 160.626 331.808L161.436 328.41H177.662H193.888V335.205V342H206.388H218.888V310.401V278.802L215.235 275.191L211.581 271.58H170.235H128.888V279.61ZM328.888 303.757V335.935L331.957 338.967L335.025 342H376.332H417.638V306.79V271.58H405.138H392.638V293.848V316.115L371.701 315.777L350.763 315.438L350.422 293.509L350.081 271.58H339.485H328.888V303.757ZM246.388 274.608C246.388 275.594 245.78 279.208 245.035 282.638L243.681 288.876H235.035H226.388V296.907V304.937H233.263C239.585 304.937 240.138 305.164 240.138 307.75C240.138 312.872 236.756 316.056 231.317 316.056H226.388V329.028V342H238.36C249.782 342 250.49 341.843 253.803 338.568C256.647 335.757 257.657 333.013 259.378 323.434C262.893 303.856 262.592 304.755 265.493 305.175C267.736 305.499 268.637 307.631 271.663 319.762C274.762 332.181 275.752 334.475 279.53 337.985L283.852 342H301.37H318.888V329.028V316.056H305.291C290.525 316.056 289.777 315.743 288.308 308.952L287.44 304.937H301.071C313.703 304.937 314.902 304.727 317.421 302.078C319.861 299.51 320.138 297.87 320.138 286.017V272.815H307.698H295.257L294.886 280.537L294.513 288.258L279.971 288.606L265.428 288.952L266.962 280.884L268.497 272.815H257.442C248.617 272.815 246.388 273.176 246.388 274.608ZM192.388 289.123C193.281 290.005 193.888 294.258 193.888 299.624V308.643H179.353H164.818L165.67 303.393C166.137 300.505 166.848 295.779 167.25 292.891L167.978 287.641H179.433C186.676 287.641 191.44 288.186 192.388 289.123Z" stroke="black" stroke-width="6" mask="url(#path-6-outside-1_4_23)"/>
<path fill-rule="evenodd" clip-rule="evenodd" d="M50.9837 267.417C50.9837 269.645 50.1604 269.834 40.4918 269.834H30V277.69V285.546H38.6959H47.393L46.5611 290.078C43.3814 307.421 42.3767 311.371 40.9115 312.28C40.0018 312.844 37.1752 313.314 34.6288 313.325L30 313.343V326.033V338.723H41.7064C52.7463 338.723 53.6276 338.534 57.1615 335.4C60.7349 332.231 61.0941 330.993 64.8848 308.811L68.8618 285.546H80.3152H91.7685L86.1745 293.704L80.5793 301.862L89.9195 302.216L99.2597 302.57L98.882 307.654L98.5055 312.739L83.3849 313.079L68.2644 313.418V326.071V338.723H91.1551C113.814 338.723 114.078 338.693 117.076 335.756C120.042 332.853 120.106 332.376 120.106 313.398V294.006H115.169C109.587 294.006 109.295 293.434 112.7 289.172C114.544 286.863 115.121 284.224 115.142 277.992L115.169 269.834H93.5682C72.7907 269.834 71.9674 269.742 71.9674 267.417C71.9674 265.19 71.1441 265 61.4755 265C51.807 265 50.9837 265.19 50.9837 267.417Z" fill="#F8F8F8" stroke="black" stroke-width="4"/>
<path fill-rule="evenodd" clip-rule="evenodd" d="M127.66 278.213V285.873H136.101C140.744 285.873 144.542 286.27 144.54 286.757C144.519 291.092 139.549 311.178 138.305 311.949C137.424 312.495 134.67 312.948 132.182 312.959L127.66 312.977V325.35V337.723H139.494C150.852 337.723 151.452 337.593 154.413 334.483C156.11 332.7 157.85 329.783 158.279 328.001L159.061 324.761H174.715H190.37V331.242V337.723H202.43H214.489V307.583V277.442L210.964 273.998L207.439 270.553H167.549H127.66V278.213ZM188.923 287.287C189.784 288.128 190.37 292.184 190.37 297.303V305.906H176.347H162.324L163.145 300.898C163.596 298.144 164.282 293.635 164.67 290.881L165.373 285.873H176.424C183.412 285.873 188.007 286.392 188.923 287.287Z" fill="#F8F8F8" stroke="black" stroke-width="4"/>
<path fill-rule="evenodd" clip-rule="evenodd" d="M243.891 273.251C243.891 274.185 243.296 277.608 242.567 280.858L241.242 286.766H232.78H224.319V294.372V301.979H231.047C237.233 301.979 237.775 302.194 237.775 304.643C237.775 309.495 234.465 312.511 229.142 312.511H224.319V324.798V337.085H236.034C247.213 337.085 247.905 336.937 251.148 333.834C253.931 331.172 254.919 328.573 256.603 319.499C260.043 300.955 259.748 301.807 262.588 302.205C264.782 302.511 265.664 304.531 268.626 316.021C271.658 327.784 272.627 329.957 276.324 333.282L280.554 337.085H297.697H314.841V324.798V312.511H301.534C287.084 312.511 286.352 312.215 284.915 305.782L284.065 301.979H297.404C309.766 301.979 310.94 301.78 313.404 299.271C315.792 296.838 316.064 295.285 316.064 284.058V271.553H303.89H291.715L291.351 278.867L290.987 286.181L276.756 286.51L262.524 286.837L264.025 279.196L265.527 271.553H254.709C246.072 271.553 243.891 271.895 243.891 273.251Z" fill="#F8F8F8" stroke="black" stroke-width="4"/>
<path fill-rule="evenodd" clip-rule="evenodd" d="M325.894 300.607V331.3L328.896 334.192L331.897 337.085H372.311H412.723V303.5V269.915H400.494H388.264V291.155V312.395L367.78 312.072L347.295 311.749L346.961 290.832L346.628 269.915H336.261H325.894V300.607Z" fill="#F8F8F8" stroke="black" stroke-width="4"/>
</svg>
