<svg width="432" height="432" viewBox="0 0 432 432" fill="none" xmlns="http://www.w3.org/2000/svg">
<path fill-rule="evenodd" clip-rule="evenodd" d="M51.045 17.4256C50.68 18.3763 52.5678 21.8122 55.5144 25.5635C60.7127 32.1816 64.0951 38.8099 64.1063 42.404C64.1187 46.4898 66.5185 52.8554 69.2832 56.1397C70.8509 58.0019 75.6685 61.3828 79.9897 63.6525C88.7085 68.2322 93.0667 72.9982 93.6833 78.6263C94.3649 84.8493 96.1235 85.3679 116.813 85.4363L135.409 85.4992L140.825 91.5853C147.768 99.3898 147.685 102.251 140.462 103.989C136.545 104.93 135.17 105.877 134.35 108.198L133.291 111.192H116.027C106.275 111.192 97.8192 110.686 96.5918 110.03C94.503 108.912 94.4199 109.362 94.4199 121.816V134.764H119.156H143.89L143.58 151.308L143.269 167.852L137.781 168.634C129.685 169.79 129.425 170.53 133.821 179.903L137.654 188.081L138.216 250.043C138.658 298.828 139.089 312.314 140.238 313.463C142.117 315.336 152.107 315.222 154.424 313.3C155.995 311.997 156.184 302.325 156.184 223.302V134.764H215.701H275.219V222.798C275.219 298.231 275.453 311.065 276.848 312.46C279.338 314.949 286.002 315.819 289.553 314.118L292.625 312.647L293.187 250.925L293.748 189.204L297.811 180.001L301.873 170.798L298.485 169.619C296.622 168.969 293.657 168.438 291.896 168.438H288.695V151.623V134.807L313.119 134.505L337.544 134.202L337.862 120.806C338.171 107.801 338.119 107.464 336.09 109.3C334.31 110.91 331.291 111.192 315.838 111.192C298.822 111.192 297.678 111.059 297.678 109.084C297.678 106.298 295.771 104.911 290.669 103.993C287.437 103.411 286.305 102.59 285.765 100.439C285.194 98.1663 286.087 96.5152 290.528 91.6302L295.994 85.6171L314.169 85.4958C335.687 85.3522 338.106 84.7337 338.106 79.3806C338.106 73.0734 342.352 68.5184 354.1 62.2236C362.882 57.517 365.667 53.7646 367.423 44.2696C368.896 36.3 370.72 32.5307 376.413 25.6825C384.3 16.1931 381.983 14.0986 369.72 19.6324C343.825 31.3196 316.204 37.8748 274.657 42.193C251.283 44.6232 198.308 45.5649 174.713 43.9699C123.699 40.5205 91.1364 33.8676 66.7554 21.9121C53.2449 15.2873 52.0018 14.9326 51.045 17.4256ZM204.472 99.9724V114.571L188.75 114.379C180.103 114.274 173.028 113.783 173.028 113.289C173.028 111.175 165.87 104.457 163.617 104.457C160.5 104.457 156.184 101.462 156.184 99.3C156.184 98.3863 158.458 95.4286 161.237 92.7291C164.016 90.0284 166.29 87.2693 166.29 86.597C166.29 85.763 172.36 85.3746 185.381 85.3746H204.472V99.9724ZM270.016 91.6302C274.458 96.5152 275.35 98.1663 274.78 100.439C274.24 102.591 273.11 103.409 269.876 103.989C265.154 104.834 262.227 107.001 260.004 111.297L258.496 114.213L242.713 114.375L226.931 114.535V99.9556V85.3746L245.741 85.4958L264.551 85.6171L270.016 91.6302Z" fill="#1D1C1C"/>
<path fill-rule="evenodd" clip-rule="evenodd" d="M193.738 18.5475C181.275 20.5167 166.235 24.9464 156.208 29.6019L148.185 33.3268L156.118 34.1563C173.507 35.975 197.791 36.8225 221.857 36.4493C248.706 36.0323 282.595 33.8484 282.595 32.5344C282.595 31.5419 267.652 25.6387 257.288 22.5388C239.064 17.0863 213.247 15.4644 193.738 18.5475ZM340.011 91.4271C336.657 93.4098 333.74 93.7841 318.64 94.164C309.022 94.4057 300.686 95.0452 300.114 95.5836C299.493 96.1692 300.309 97.7068 302.14 99.4029C305.058 102.104 305.848 102.242 318.421 102.242C325.688 102.242 332.115 101.78 332.703 101.215C334.984 99.023 342.537 99.3591 344.94 101.76C346.388 103.209 346.707 106.555 346.707 120.357C346.707 136.728 346.631 137.263 343.945 139.946C341.203 142.688 341.042 142.706 319.201 142.706H297.217V151.698C297.217 157.876 297.634 160.69 298.549 160.69C301.65 160.69 309.345 165.442 310.561 168.108C311.702 170.611 311.358 172.151 307.989 179.612C305.85 184.351 303.575 190.504 302.935 193.285C301.691 198.69 301.196 286.577 302.409 286.577C304.332 286.577 314.703 277.731 323.718 268.4C350.834 240.333 365 205.108 365 165.748C365 142.325 359.463 118.366 349.631 99.2523C344.091 88.4811 344.471 88.7902 340.011 91.4271ZM83.1454 99.6165C76.7218 112.414 71.4725 128.913 69.2826 143.186C67.023 157.909 67.8452 184.15 70.9934 197.781C76.9895 223.75 89.461 247.53 107.056 266.543C114.247 274.316 128.332 286.577 130.067 286.577C130.443 286.577 130.751 265.918 130.751 240.67C130.751 190.972 130.724 190.716 124.141 177.822C122.827 175.249 121.753 171.904 121.753 170.389C121.753 167.067 127 162.322 131.849 161.257L135.25 160.511V151.609V142.706H113.793H92.3359L89.0482 139.42L85.7605 136.135V120.437C85.7605 107.153 86.063 104.37 87.7288 102.333C89.9457 99.6244 97.3355 98.7476 99.5243 100.935C100.378 101.788 105.536 102.23 114.386 102.206C127.172 102.174 128.118 102.014 131.098 99.3951C132.834 97.8676 133.943 96.113 133.562 95.4959C133.157 94.8406 126.678 94.3742 117.995 94.3742C104.499 94.3742 96.4919 93.2648 90.038 90.5009C88.4892 89.8378 87.1946 91.5496 83.1454 99.6165ZM170.706 95.4577C170.337 96.0523 172.079 98.5813 174.577 101.078L179.116 105.614H188.114H197.113V99.9941V94.3742H184.244C177.166 94.3742 171.074 94.862 170.706 95.4577ZM235.355 99.9941V105.614H244.889C253.638 105.614 254.566 105.398 256.145 102.99C257.091 101.546 259.121 99.694 260.655 98.8735C262.809 97.7214 263.161 97.038 262.197 95.8781C261.288 94.7833 257.464 94.3742 248.152 94.3742H235.355V99.9941ZM164.494 224.018V305.331L174.336 308.28C190.04 312.987 197.641 314.011 216.796 314C235.322 313.989 245.303 312.578 260.943 307.759L267.973 305.595V224.15V142.706H216.234H164.494V224.018Z" fill="#D71F33"/>
<path fill-rule="evenodd" clip-rule="evenodd" d="M55.1776 334.219C54.6247 335.982 52.836 337.425 51.2041 337.425C47.6298 337.425 47.1847 338.117 45.8079 345.84C44.8414 351.263 45.0696 351.851 48.1527 351.851C51.1518 351.851 51.4497 352.488 50.5878 357.061C50.0491 359.927 47.2195 374.74 44.3028 389.98L39 417.687L53.3224 417.23L67.6447 416.772L73.8648 384.312L80.0849 351.851H91.1562H102.226L98.8164 357.061C96.9421 359.927 94.6179 363.893 93.6547 365.877C92.4506 368.354 90.4923 369.484 87.4013 369.484C84.6414 369.484 82.9034 370.335 82.9034 371.688C82.9034 372.9 82.4582 376.146 81.9132 378.902L80.923 383.911H88.0826H95.2406L93.7418 390.661C91.7741 399.522 90.0535 401.374 82.6768 402.568C77.6909 403.374 76.349 404.362 75.6044 407.763C75.1006 410.073 74.3496 413.226 73.9361 414.768C73.258 417.294 74.6474 417.57 87.9463 417.538C104.208 417.5 114.438 414.234 117.716 408.036C119.173 405.282 125.68 374.857 125.68 370.802C125.68 370.199 124.291 369.476 122.594 369.196C119.739 368.721 119.905 368.022 124.804 359.866C127.716 355.017 130.593 347.983 131.197 344.237L132.296 337.425H107.494C83.4104 337.425 82.7196 337.332 83.6956 334.219C84.6509 331.175 83.9807 331.013 70.4426 331.013C57.5747 331.013 56.0854 331.325 55.1776 334.219ZM143.906 334.62C141.815 343.522 130.433 402.339 130.433 404.235C130.433 405.823 133.805 406.352 143.94 406.352C160.005 406.352 158.172 409.09 164.591 375.495L169.11 351.851H180.047C190.589 351.851 190.95 351.981 190.109 355.458C189.629 357.443 188.358 363.935 187.287 369.885L185.337 380.705H177.783H170.229L168.888 387.518L167.549 394.33L174.947 394.808L182.345 395.286L181.126 401.22C180.455 404.483 179.483 409.526 178.963 412.426L178.019 417.697L191.812 417.235L205.607 416.772L212.239 382.733C215.887 364.012 218.489 347.212 218.02 345.4C216.462 339.369 209.645 337.425 190.072 337.425C172.703 337.425 171.959 337.287 172.751 334.219C173.535 331.186 172.8 331.013 159.167 331.013C145.526 331.013 144.707 331.207 143.906 334.62ZM227.933 370.686C223.655 392.508 219.848 411.982 219.471 413.967C218.803 417.492 219.111 417.573 233.038 417.573H247.287L249.575 405.952L251.861 394.33L261.223 413.165L270.583 432H284.438C298.165 432 298.28 431.966 296.899 428.393C296.132 426.41 290.539 413.869 284.471 400.526L273.438 376.266L290.154 357.245L306.869 338.226L292.718 337.716L278.568 337.207L268.666 348.062C263.221 354.032 258.789 358.228 258.82 357.388C258.85 356.547 259.895 351.17 261.141 345.44C264.493 330.022 265.284 331.013 249.613 331.013H235.709L227.933 370.686ZM364.422 338.627C364.049 339.287 361.068 354.075 357.799 371.488L351.855 403.147H341.75C334.714 403.147 331.646 402.537 331.656 401.143C331.662 400.042 333.801 388.019 336.409 374.429C339.015 360.839 341.149 348.758 341.149 347.58C341.149 345.925 337.217 345.44 323.815 345.44H306.481L305.134 352.252C303.899 358.502 304.068 359.105 307.184 359.549L310.581 360.033L306.012 382.792C303.498 395.31 301.831 407.16 302.306 409.129C303.995 416.115 310.288 417.573 338.744 417.573C367.159 417.573 373.81 416.172 378.078 409.292C379.354 407.234 383.018 391.485 386.22 374.293C389.422 357.101 392.404 341.774 392.844 340.23C393.565 337.705 392.215 337.425 379.373 337.425C371.524 337.425 364.795 337.967 364.422 338.627Z" fill="#1D1C1C"/>
</svg>
